<svg width="161" height="211" viewBox="0 0 161 211" fill="none" xmlns="http://www.w3.org/2000/svg">
<g clip-path="url(#clip0_805_1869)">
<path d="M148.97 76.0664H137.579L140.674 71.9107C142.157 69.9285 142.991 67.5375 143.06 65.0645C143.13 62.5916 142.432 60.1577 141.063 58.0955L135.308 49.4703V12.005C135.312 9.5941 134.588 7.23793 133.231 5.24321C131.875 3.24849 129.948 1.7076 127.701 0.821255C125.455 -0.0650922 122.993 -0.255889 120.636 0.273731C118.28 0.803351 116.138 2.02885 114.489 3.79064L89.6262 30.2297C87.4521 32.542 86.2828 35.619 86.3738 38.7887C86.4649 41.9584 87.8087 44.9635 90.112 47.1478L80.4659 56.5118L70.8198 47.1478C73.1199 44.9604 74.4595 41.9537 74.5462 38.784C74.6329 35.6143 73.4596 32.5391 71.2824 30.2297L46.4801 3.79064C44.8311 2.02885 42.6889 0.803351 40.3323 0.273731C37.9757 -0.255889 35.514 -0.0650922 33.2675 0.821255C31.0211 1.7076 29.0941 3.24849 27.7374 5.24321C26.3808 7.23793 25.6572 9.5941 25.6611 12.005V49.1194L22.1959 53.7783C20.7722 55.6971 19.954 57.996 19.8461 60.3812C19.7381 62.7664 20.3452 65.1296 21.5898 67.1687L26.8409 75.7524C26.7854 75.8539 26.7252 75.9463 26.6697 76.0479H12.0131C8.82291 76.0479 5.76336 77.3127 3.50754 79.5641C1.25171 81.8155 -0.0156025 84.8691 -0.0156025 88.053V129.545C-0.0205427 132.097 0.789742 134.585 2.29762 136.646L51.6617 203.76C53.2811 205.973 55.3961 207.779 57.8382 209.032C60.2804 210.285 62.9822 210.952 65.7281 210.979C68.4741 211.006 71.1884 210.392 73.6548 209.187C76.1211 207.982 78.2713 206.218 79.9339 204.037L80.1929 203.677L80.4659 203.293L80.7389 203.677L80.9979 204.037C82.6374 206.199 84.759 207.951 87.1945 209.153C89.6301 210.356 92.3128 210.975 95.0299 210.963C97.806 210.959 100.542 210.303 103.017 209.047C105.492 207.792 107.635 205.973 109.275 203.737L158.634 136.628C160.142 134.566 160.952 132.079 160.947 129.526V88.0715C160.947 84.8963 159.687 81.8505 157.442 79.6005C155.197 77.3506 152.151 76.0798 148.97 76.0664Z" fill="#4B69F0"/>
<path d="M92.4107 108.11L87.4326 125.901L100.475 108.817L106.586 84.003L107.807 95.8004L131.041 64.7486L123.283 53.0897V11.9951L98.4204 38.4342H116.352L86.5998 67.3159L83.75 104.333L88.8853 104.112C89.3976 104.086 89.9091 104.177 90.3815 104.376C90.854 104.575 91.2754 104.878 91.6142 105.263C91.953 105.647 92.2006 106.103 92.3385 106.596C92.4764 107.089 92.5011 107.606 92.4107 108.11ZM109.866 51.4598V54.6919L103.343 61.2025L100.9 59.5725L109.866 51.4598Z" fill="#FFE1F0"/>
<path d="M54.4179 84.0035L60.5294 108.817L73.5713 125.902L68.5933 108.111C68.5048 107.609 68.5303 107.093 68.6682 106.603C68.806 106.112 69.0526 105.658 69.3897 105.275C69.7268 104.892 70.1458 104.59 70.6157 104.39C71.0857 104.19 71.5945 104.098 72.1047 104.121L77.2401 104.343L74.3902 67.3256L44.633 38.444H62.565L37.6933 12.0049V53.0995L31.8594 60.949L53.1826 95.8194L54.4179 84.0035ZM51.1562 51.4603L60.1223 59.5961L57.6795 61.226L51.1562 54.7156V51.4603Z" fill="#FFE1F0"/>
<path d="M129.404 88.0715V119.991C129.403 121.451 128.928 122.87 128.048 124.036L96.4267 165.87C95.9798 166.492 95.3074 166.916 94.5524 167.051C93.7973 167.187 93.0191 167.023 92.3832 166.595C92.0766 166.372 91.818 166.09 91.6229 165.765C91.4278 165.441 91.3001 165.08 91.2475 164.705C91.1948 164.331 91.2182 163.949 91.3164 163.583C91.4145 163.218 91.5854 162.876 91.8188 162.577C97.0975 155.845 114.488 132.675 120.66 124.396C122.106 122.466 122.887 120.121 122.885 117.71V99.9566C122.885 99.4949 122.885 99.0332 122.848 98.5714L123.311 82.6923L119.476 89.5537L80.5164 147.483L42.1169 90.408L37.287 81.7734L38.1151 111.325V117.71C38.1148 120.124 38.897 122.473 40.345 124.406C46.5028 132.629 63.6438 155.494 69.0567 162.425C69.4956 162.956 69.7355 163.623 69.7355 164.311C69.7355 165 69.4956 165.666 69.0567 166.197C68.778 166.509 68.4335 166.755 68.0482 166.918C67.6628 167.08 67.2461 167.156 66.828 167.139C66.41 167.121 66.0009 167.012 65.6303 166.818C65.2597 166.624 64.9367 166.351 64.6847 166.017L32.952 124.036C32.071 122.871 31.5951 121.451 31.5964 119.991V88.0715H12.0312V129.563L61.4046 196.691C61.9177 197.396 62.5893 197.972 63.3655 198.373C64.1417 198.773 65.001 198.986 65.8747 198.996C66.7483 199.005 67.6121 198.81 68.3968 198.427C69.1815 198.043 69.8654 197.482 70.3937 196.788L80.5025 182.441L90.6113 196.788C91.1396 197.482 91.8235 198.043 92.6082 198.427C93.3929 198.81 94.2566 199.005 95.1303 198.996C96.004 198.986 96.8633 198.773 97.6395 198.373C98.4157 197.972 99.0872 197.396 99.6004 196.691L148.974 129.563V88.0715H129.404Z" fill="#FFE1F0"/>
<path d="M75.4418 108.411C75.1505 108.411 74.8638 108.483 74.6077 108.622C74.3515 108.76 74.134 108.96 73.975 109.204C73.816 109.447 73.7204 109.727 73.6971 110.016C73.6737 110.306 73.7232 110.597 73.8411 110.863L80.4985 125.089L87.156 110.863C87.2739 110.597 87.3234 110.306 87.3 110.016C87.2766 109.727 87.181 109.447 87.022 109.204C86.863 108.96 86.6455 108.76 86.3894 108.622C86.1332 108.483 85.8465 108.411 85.5552 108.411H75.4418Z" fill="#FFE1F0"/>
</g>
<defs>
<clipPath id="clip0_805_1869">
<rect width="161" height="211" fill="white"/>
</clipPath>
</defs>
</svg>
